<svg xmlns="http://www.w3.org/2000/svg" aria-hidden="true" style="position:absolute;width:0;height:0;overflow:hidden">
  <defs>
    <symbol id="icon-youtube" viewBox="0 0 43 32">
      <path d="M33.486 1.714c-1.943-.114-5.943-.229-12-.229h-.8c-5.829 0-9.714.114-11.657.343-2.629.229-4.457.914-5.486 1.829-.914.8-1.6 2.286-1.829 4.229-.114 1.257-.229 3.886-.229 7.886v.571c0 3.771.114 6.4.343 7.657.343 1.829.914 3.2 2.057 4 1.143.914 3.086 1.486 5.829 1.714 1.943.114 5.943.229 12 .229h.8c5.829 0 9.714-.114 11.657-.343 2.629-.229 4.457-.914 5.486-1.829.914-.8 1.6-2.286 1.829-4.229.114-1.257.229-3.886.229-7.886v-.571c0-3.771-.114-6.4-.343-7.657-.343-1.829-.914-3.2-2.057-4-1.143-.914-3.086-1.486-5.829-1.714zm-4.458 14.057-12.571 7.543V8.228l12.571 7.543z"/>
    </symbol>
    <symbol id="icon-close" viewBox="0 0 32 32">
      <path stroke-linecap="round" stroke-linejoin="round" stroke-width="2.4" d="M24 8 8 24M8 8l16 16"/>
    </symbol>
    <symbol id="icon-dot" viewBox="0 0 32 32">
      <path d="M30.222 16c0 7.855-6.367 14.222-14.222 14.222S1.778 23.855 1.778 16C1.778 8.145 8.145 1.778 16 1.778S30.222 8.145 30.222 16z"/>
    </symbol>
    <symbol id="icon-facebook" viewBox="0 0 32 32">
      <path d="M19.352 5.181h.914V8.61h-1.143c-.457 0-.914 0-1.143.229-.229.229-.229.457-.229.99v1.219h2.514v2.895h-2.514v12.571h-3.886V13.866h-2.057v-2.895h2.057v-.99c0-1.676.229-2.895.686-3.429.686-.99 2.057-1.448 4.114-1.448.229.076.457.076.686.076z"/>
    </symbol>
    <symbol id="icon-instagram" viewBox="0 0 32 32">
      <path d="M28.112 11.006a8.81 8.81 0 0 0-.567-2.995 6.238 6.238 0 0 0-3.565-3.559 8.979 8.979 0 0 0-2.96-.568c-1.302-.058-1.715-.074-5.022-.074s-3.73 0-5.023.074a8.951 8.951 0 0 0-2.958.568 6.235 6.235 0 0 0-3.565 3.559 8.85 8.85 0 0 0-.567 2.953c-.058 1.302-.076 1.714-.076 5.015s0 3.723.076 5.015a8.893 8.893 0 0 0 .567 2.956 6.238 6.238 0 0 0 3.566 3.558 8.906 8.906 0 0 0 2.958.608c1.304.058 1.717.076 5.023.076s3.73 0 5.023-.076a8.945 8.945 0 0 0 2.96-.566 6.243 6.243 0 0 0 3.565-3.559 8.883 8.883 0 0 0 .567-2.956c.058-1.3.076-1.713.076-5.015-.003-3.301-.003-3.72-.078-5.013zM15.991 22.22c-3.458 0-6.259-2.797-6.259-6.249s2.801-6.249 6.259-6.249c3.455 0 6.259 2.797 6.259 6.249s-2.804 6.249-6.259 6.249zm6.508-11.271a1.456 1.456 0 1 1 0-2.914 1.457 1.457 0 1 1 0 2.914z"/>
      <path d="M15.993 19.787a3.813 3.813 0 1 0 0-7.626 3.813 3.813 0 0 0 0 7.626z"/>
    </symbol>
    <symbol id="icon-open" viewBox="0 0 32 32">
      <path stroke-linecap="round" stroke-linejoin="round" stroke-width="2.824" d="M1.882 10.51h28.235M1.882 21.49h28.235"/>
    </symbol>
    <symbol id="icon-vector" viewBox="0 0 4464 32">
<path stroke-linejoin="miter" stroke-linecap="butt" stroke-miterlimit="4" stroke-width="16" d="M0 16h4464"></path>
</symbol>
  </defs>
</svg>
